<svg xmlns:xlink="http://www.w3.org/1999/xlink" version="1.1" style="font-family:'lucida grande', 'lucida sans unicode', verdana, arial, helvetica, sans-serif;font-size:12px;" xmlns="http://www.w3.org/2000/svg" width="600" height="400"><desc>Created with Highcharts 3.0.10</desc><defs><clipPath id="highcharts-4"><rect x="0" y="0" width="530" height="276"></rect></clipPath></defs><rect x="0" y="0" width="600" height="400" fill="#FFFFFF" class=" highcharts-background"></rect><g class="highcharts-grid" ></g><g class="highcharts-grid" ><path fill="none" d="M 60 39.5 L 590 39.5" stroke="#C0C0C0" stroke-width="1"  opacity="1"></path><path fill="none" d="M 60 132.5 L 590 132.5" stroke="#C0C0C0" stroke-width="1"  opacity="1"></path><path fill="none" d="M 60 224.5 L 590 224.5" stroke="#C0C0C0" stroke-width="1"  opacity="1"></path><path fill="none" d="M 60 316.5 L 590 316.5" stroke="#C0C0C0" stroke-width="1"  opacity="1"></path></g><g class="highcharts-axis" ><path fill="none" d="M 177.5 316 L 177.5 321" stroke="#C0D0E0" stroke-width="1" opacity="1"></path><path fill="none" d="M 236.5 316 L 236.5 321" stroke="#C0D0E0" stroke-width="1" opacity="1"></path><path fill="none" d="M 295.5 316 L 295.5 321" stroke="#C0D0E0" stroke-width="1" opacity="1"></path><path fill="none" d="M 353.5 316 L 353.5 321" stroke="#C0D0E0" stroke-width="1" opacity="1"></path><path fill="none" d="M 412.5 316 L 412.5 321" stroke="#C0D0E0" stroke-width="1" opacity="1"></path><path fill="none" d="M 471.5 316 L 471.5 321" stroke="#C0D0E0" stroke-width="1" opacity="1"></path><path fill="none" d="M 530.5 316 L 530.5 321" stroke="#C0D0E0" stroke-width="1" opacity="1"></path><path fill="none" d="M 590.5 316 L 590.5 321" stroke="#C0D0E0" stroke-width="1" opacity="1"></path><path fill="none" d="M 118.5 316 L 118.5 321" stroke="#C0D0E0" stroke-width="1" opacity="1"></path><path fill="none" d="M 59.5 316 L 59.5 321" stroke="#C0D0E0" stroke-width="1"></path><path fill="none" d="M 60 316.5 L 590 316.5" stroke="#C0D0E0" stroke-width="1"  visibility="visible"></path></g><g class="highcharts-axis" ><text x="26" y="178"  text-anchor="middle" transform="translate(0,0) rotate(270 26 178)" class=" highcharts-yaxis-title" style="color:#4d759e;font-weight:bold;fill:#4d759e;" visibility="visible"><tspan x="26">通话次数</tspan></text></g><g class="highcharts-series-group" ><g class="highcharts-series highcharts-tracker" visibility="visible"  transform="translate(60,40) scale(1 1)" style="" clip-path="url(#highcharts-4)"><rect x="13.5" y="276.5" width="15" height="0" stroke="#FFFFFF" stroke-width="1" fill="#2f7ed8" rx="0" ry="0"></rect><rect x="71.5" y="129.5" width="15" height="147" stroke="#FFFFFF" stroke-width="1" fill="#2f7ed8" rx="0" ry="0"></rect><rect x="130.5" y="14.5" width="15" height="262" stroke="#FFFFFF" stroke-width="1" fill="#2f7ed8" rx="0" ry="0"></rect><rect x="189.5" y="23.5" width="15" height="253" stroke="#FFFFFF" stroke-width="1" fill="#2f7ed8" rx="0" ry="0"></rect><rect x="248.5" y="28.5" width="15" height="248" stroke="#FFFFFF" stroke-width="1" fill="#2f7ed8" rx="0" ry="0"></rect><rect x="307.5" y="41.5" width="15" height="235" stroke="#FFFFFF" stroke-width="1" fill="#2f7ed8" rx="0" ry="0"></rect><rect x="366.5" y="276.5" width="15" height="0" stroke="#FFFFFF" stroke-width="1" fill="#2f7ed8" rx="0" ry="0"></rect><rect x="425.5" y="276.5" width="15" height="0" stroke="#FFFFFF" stroke-width="1" fill="#2f7ed8" rx="0" ry="0"></rect><rect x="484.5" y="276.5" width="15" height="0" stroke="#FFFFFF" stroke-width="1" fill="#2f7ed8" rx="0" ry="0"></rect></g><g class="highcharts-markers" visibility="visible"  transform="translate(60,40) scale(1 1)" clip-path="none"></g><g class="highcharts-series highcharts-tracker" visibility="visible"  transform="translate(60,40) scale(1 1)" style="" clip-path="url(#highcharts-4)"><rect x="30.5" y="276.5" width="15" height="0" stroke="#FFFFFF" stroke-width="1" fill="#0d233a" rx="0" ry="0"></rect><rect x="89.5" y="276.5" width="15" height="0" stroke="#FFFFFF" stroke-width="1" fill="#0d233a" rx="0" ry="0"></rect><rect x="148.5" y="276.5" width="15" height="0" stroke="#FFFFFF" stroke-width="1" fill="#0d233a" rx="0" ry="0"></rect><rect x="207.5" y="276.5" width="15" height="0" stroke="#FFFFFF" stroke-width="1" fill="#0d233a" rx="0" ry="0"></rect><rect x="266.5" y="276.5" width="15" height="0" stroke="#FFFFFF" stroke-width="1" fill="#0d233a" rx="0" ry="0"></rect><rect x="325.5" y="276.5" width="15" height="0" stroke="#FFFFFF" stroke-width="1" fill="#0d233a" rx="0" ry="0"></rect><rect x="384.5" y="276.5" width="15" height="0" stroke="#FFFFFF" stroke-width="1" fill="#0d233a" rx="0" ry="0"></rect><rect x="442.5" y="276.5" width="15" height="0" stroke="#FFFFFF" stroke-width="1" fill="#0d233a" rx="0" ry="0"></rect><rect x="501.5" y="276.5" width="15" height="0" stroke="#FFFFFF" stroke-width="1" fill="#0d233a" rx="0" ry="0"></rect></g><g class="highcharts-markers" visibility="visible"  transform="translate(60,40) scale(1 1)" clip-path="none"></g></g><text x="300" y="25" text-anchor="middle" class="highcharts-title"  style="color:#274b6d;font-size:16px;fill:#274b6d;width:536px;"><tspan x="300">话务统计</tspan></text><g class="highcharts-legend"  transform="translate(243,358)"><rect x="0.5" y="0.5" width="113" height="26" rx="5" ry="5" stroke="#909090" stroke-width="1" fill="none" visibility="visible"></rect><g ><g><g class="highcharts-legend-item"  transform="translate(8,3)"><text x="21" y="15" style="color:#274b6d;font-size:12px;cursor:pointer;fill:#274b6d;" text-anchor="start" ><tspan x="21">呼入</tspan></text><rect x="0" y="4" width="16" height="12" rx="2" ry="2"  fill="#2f7ed8"></rect></g><g class="highcharts-legend-item"  transform="translate(61,3)"><text x="21" y="15" style="color:#274b6d;font-size:12px;cursor:pointer;fill:#274b6d;" text-anchor="start" ><tspan x="21">呼出</tspan></text><rect x="0" y="4" width="16" height="12" rx="2" ry="2"  fill="#0d233a"></rect></g></g></g></g><g class="highcharts-axis-labels highcharts-xaxis-labels" ><text x="89.44444444444444" y="330" text-anchor="middle" style="width:39px;color:#666;cursor:default;font-size:11px;fill:#666;" opacity="1"><tspan x="89.44444444444444">123123123</tspan></text><text x="148.33333333333331" y="346" text-anchor="middle" style="width:39px;color:#666;cursor:default;font-size:11px;fill:#666;" opacity="1"><tspan x="148.33333333333331">张三</tspan></text><text x="207.22222222222223" y="330" text-anchor="middle" style="width:39px;color:#666;cursor:default;font-size:11px;fill:#666;" opacity="1"><tspan x="207.22222222222223">系统管理员</tspan></text><text x="266.1111111111111" y="346" text-anchor="middle" style="width:39px;color:#666;cursor:default;font-size:11px;fill:#666;" opacity="1"><tspan x="266.1111111111111">测试管理员</tspan></text><text x="325" y="330" text-anchor="middle" style="width:39px;color:#666;cursor:default;font-size:11px;fill:#666;" opacity="1"><tspan x="325">我是测试管理员</tspan></text><text x="383.88888888888886" y="346" text-anchor="middle" style="width:39px;color:#666;cursor:default;font-size:11px;fill:#666;" opacity="1"><tspan x="383.88888888888886">李莫愁</tspan></text><text x="442.77777777777777" y="330" text-anchor="middle" style="width:39px;color:#666;cursor:default;font-size:11px;fill:#666;" opacity="1"><tspan x="442.77777777777777">李世民</tspan></text><text x="501.66666666666663" y="346" text-anchor="middle" style="width:39px;color:#666;cursor:default;font-size:11px;fill:#666;" opacity="1"><tspan x="501.66666666666663">123dad</tspan></text><text x="560.5555555555555" y="330" text-anchor="middle" style="width:39px;color:#666;cursor:default;font-size:11px;fill:#666;" opacity="1"><tspan x="560.5555555555555">ddddddd</tspan></text></g><g class="highcharts-axis-labels highcharts-yaxis-labels" ><text x="52" y="320" text-anchor="end" style="width:178px;color:#666;cursor:default;font-size:11px;fill:#666;" opacity="1"><tspan x="52">0</tspan></text><text x="52" y="228" text-anchor="end" style="width:178px;color:#666;cursor:default;font-size:11px;fill:#666;" opacity="1"><tspan x="52">20</tspan></text><text x="52" y="136" text-anchor="end" style="width:178px;color:#666;cursor:default;font-size:11px;fill:#666;" opacity="1"><tspan x="52">40</tspan></text><text x="52" y="44" text-anchor="end" style="width:178px;color:#666;cursor:default;font-size:11px;fill:#666;" opacity="1"><tspan x="52">60</tspan></text></g><g class="highcharts-tooltip"  style="cursor:default;padding:0;white-space:nowrap;" transform="translate(0,-9999)"><rect x="0.5" y="0.5" width="16" height="16" fill="none" fill-opacity="0.85" rx="3" ry="3"  stroke="black" stroke-opacity="0.049999999999999996" stroke-width="5" transform="translate(1, 1)"></rect><rect x="0.5" y="0.5" width="16" height="16" fill="none" fill-opacity="0.85" rx="3" ry="3"  stroke="black" stroke-opacity="0.09999999999999999" stroke-width="3" transform="translate(1, 1)"></rect><rect x="0.5" y="0.5" width="16" height="16" fill="none" fill-opacity="0.85" rx="3" ry="3"  stroke="black" stroke-opacity="0.15" stroke-width="1" transform="translate(1, 1)"></rect><rect x="0.5" y="0.5" width="16" height="16" fill="rgb(255,255,255)" fill-opacity="0.85" rx="3" ry="3"></rect><text x="8" y="21"  style="font-size:12px;color:#333333;fill:#333333;"></text></g><text x="590" y="395" text-anchor="end"  style="cursor:pointer;color:#909090;font-size:9px;fill:#909090;"><tspan x="590">清源水务</tspan></text></svg>