<svg xmlns:xlink="http://www.w3.org/1999/xlink" version="1.1" style="font-family:'lucida grande', 'lucida sans unicode', verdana, arial, helvetica, sans-serif;font-size:12px;" xmlns="http://www.w3.org/2000/svg" width="1440" height="400"><desc>Created with Highcharts 3.0.10</desc><defs><clipPath id="highcharts-4"><rect x="0" y="0" width="1378" height="276"></rect></clipPath></defs><rect x="0" y="0" width="1440" height="400" fill="#FFFFFF" class=" highcharts-background"></rect><g class="highcharts-grid" ></g><g class="highcharts-grid" ><path fill="none" d="M 52 194.5 L 1430 194.5" stroke="#C0C0C0" stroke-width="1"  opacity="1"></path></g><g class="highcharts-axis" ><path fill="none" d="M 357.5 332 L 357.5 337" stroke="#C0D0E0" stroke-width="1" opacity="1"></path><path fill="none" d="M 510.5 332 L 510.5 337" stroke="#C0D0E0" stroke-width="1" opacity="1"></path><path fill="none" d="M 663.5 332 L 663.5 337" stroke="#C0D0E0" stroke-width="1" opacity="1"></path><path fill="none" d="M 817.5 332 L 817.5 337" stroke="#C0D0E0" stroke-width="1" opacity="1"></path><path fill="none" d="M 970.5 332 L 970.5 337" stroke="#C0D0E0" stroke-width="1" opacity="1"></path><path fill="none" d="M 1123.5 332 L 1123.5 337" stroke="#C0D0E0" stroke-width="1" opacity="1"></path><path fill="none" d="M 1276.5 332 L 1276.5 337" stroke="#C0D0E0" stroke-width="1" opacity="1"></path><path fill="none" d="M 1429.5 332 L 1429.5 337" stroke="#C0D0E0" stroke-width="1" opacity="1"></path><path fill="none" d="M 204.5 332 L 204.5 337" stroke="#C0D0E0" stroke-width="1" opacity="1"></path><path fill="none" d="M 51.5 332 L 51.5 337" stroke="#C0D0E0" stroke-width="1"></path><path fill="none" d="M 52 332.5 L 1430 332.5" stroke="#C0D0E0" stroke-width="1"  visibility="visible"></path></g><g class="highcharts-axis" ><text x="26" y="194"  text-anchor="middle" transform="translate(0,0) rotate(270 26 194)" class=" highcharts-yaxis-title" style="color:#4d759e;font-weight:bold;fill:#4d759e;" visibility="visible"><tspan x="26">通话次数</tspan></text></g><g class="highcharts-series-group" ><g class="highcharts-series highcharts-tracker" visibility="visible"  transform="translate(52,56) scale(1 1)" style="" clip-path="url(#highcharts-4)"><rect x="34.5" y="138.5" width="37" height="0" stroke="#FFFFFF" stroke-width="1" fill="#2f7ed8" rx="0" ry="0"></rect><rect x="187.5" y="138.5" width="37" height="0" stroke="#FFFFFF" stroke-width="1" fill="#2f7ed8" rx="0" ry="0"></rect><rect x="340.5" y="138.5" width="37" height="0" stroke="#FFFFFF" stroke-width="1" fill="#2f7ed8" rx="0" ry="0"></rect><rect x="494.5" y="138.5" width="37" height="0" stroke="#FFFFFF" stroke-width="1" fill="#2f7ed8" rx="0" ry="0"></rect><rect x="647.5" y="138.5" width="37" height="0" stroke="#FFFFFF" stroke-width="1" fill="#2f7ed8" rx="0" ry="0"></rect><rect x="800.5" y="138.5" width="37" height="0" stroke="#FFFFFF" stroke-width="1" fill="#2f7ed8" rx="0" ry="0"></rect><rect x="953.5" y="138.5" width="37" height="0" stroke="#FFFFFF" stroke-width="1" fill="#2f7ed8" rx="0" ry="0"></rect><rect x="1106.5" y="138.5" width="37" height="0" stroke="#FFFFFF" stroke-width="1" fill="#2f7ed8" rx="0" ry="0"></rect><rect x="1259.5" y="138.5" width="37" height="0" stroke="#FFFFFF" stroke-width="1" fill="#2f7ed8" rx="0" ry="0"></rect></g><g class="highcharts-markers" visibility="visible"  transform="translate(52,56) scale(1 1)" clip-path="none"></g><g class="highcharts-series highcharts-tracker" visibility="visible"  transform="translate(52,56) scale(1 1)" style="" clip-path="url(#highcharts-4)"><rect x="80.5" y="138.5" width="37" height="0" stroke="#FFFFFF" stroke-width="1" fill="#0d233a" rx="0" ry="0"></rect><rect x="233.5" y="138.5" width="37" height="0" stroke="#FFFFFF" stroke-width="1" fill="#0d233a" rx="0" ry="0"></rect><rect x="386.5" y="138.5" width="37" height="0" stroke="#FFFFFF" stroke-width="1" fill="#0d233a" rx="0" ry="0"></rect><rect x="539.5" y="138.5" width="37" height="0" stroke="#FFFFFF" stroke-width="1" fill="#0d233a" rx="0" ry="0"></rect><rect x="693.5" y="138.5" width="37" height="0" stroke="#FFFFFF" stroke-width="1" fill="#0d233a" rx="0" ry="0"></rect><rect x="846.5" y="138.5" width="37" height="0" stroke="#FFFFFF" stroke-width="1" fill="#0d233a" rx="0" ry="0"></rect><rect x="999.5" y="138.5" width="37" height="0" stroke="#FFFFFF" stroke-width="1" fill="#0d233a" rx="0" ry="0"></rect><rect x="1152.5" y="138.5" width="37" height="0" stroke="#FFFFFF" stroke-width="1" fill="#0d233a" rx="0" ry="0"></rect><rect x="1305.5" y="138.5" width="37" height="0" stroke="#FFFFFF" stroke-width="1" fill="#0d233a" rx="0" ry="0"></rect></g><g class="highcharts-markers" visibility="visible"  transform="translate(52,56) scale(1 1)" clip-path="none"></g></g><text x="720" y="25" text-anchor="middle" class="highcharts-title"  style="color:#274b6d;font-size:16px;fill:#274b6d;width:1376px;"><tspan x="720">话务统计</tspan></text><text x="720" y="40" text-anchor="middle" class="highcharts-subtitle"  style="color:#4d759e;fill:#4d759e;width:1376px;"><tspan x="720">2014-04-01 至 2014-12-31</tspan></text><g class="highcharts-legend"  transform="translate(663,358)"><rect x="0.5" y="0.5" width="113" height="26" rx="5" ry="5" stroke="#909090" stroke-width="1" fill="none" visibility="visible"></rect><g ><g><g class="highcharts-legend-item"  transform="translate(8,3)"><text x="21" y="15" style="color:#274b6d;font-size:12px;cursor:pointer;fill:#274b6d;" text-anchor="start" ><tspan x="21">呼入</tspan></text><rect x="0" y="4" width="16" height="12" rx="2" ry="2"  fill="#2f7ed8"></rect></g><g class="highcharts-legend-item"  transform="translate(61,3)"><text x="21" y="15" style="color:#274b6d;font-size:12px;cursor:pointer;fill:#274b6d;" text-anchor="start" ><tspan x="21">呼出</tspan></text><rect x="0" y="4" width="16" height="12" rx="2" ry="2"  fill="#0d233a"></rect></g></g></g></g><g class="highcharts-axis-labels highcharts-xaxis-labels" ><text x="128.55555555555554" y="346" text-anchor="middle" style="width:133px;color:#666;cursor:default;font-size:11px;fill:#666;" opacity="1"><tspan x="128.55555555555554">123123123</tspan></text><text x="281.6666666666667" y="346" text-anchor="middle" style="width:133px;color:#666;cursor:default;font-size:11px;fill:#666;" opacity="1"><tspan x="281.6666666666667">张三</tspan></text><text x="434.77777777777777" y="346" text-anchor="middle" style="width:133px;color:#666;cursor:default;font-size:11px;fill:#666;" opacity="1"><tspan x="434.77777777777777">系统管理员</tspan></text><text x="587.8888888888889" y="346" text-anchor="middle" style="width:133px;color:#666;cursor:default;font-size:11px;fill:#666;" opacity="1"><tspan x="587.8888888888889">测试管理员</tspan></text><text x="741" y="346" text-anchor="middle" style="width:133px;color:#666;cursor:default;font-size:11px;fill:#666;" opacity="1"><tspan x="741">我是测试管理员</tspan></text><text x="894.1111111111111" y="346" text-anchor="middle" style="width:133px;color:#666;cursor:default;font-size:11px;fill:#666;" opacity="1"><tspan x="894.1111111111111">李莫愁</tspan></text><text x="1047.2222222222222" y="346" text-anchor="middle" style="width:133px;color:#666;cursor:default;font-size:11px;fill:#666;" opacity="1"><tspan x="1047.2222222222222">李世民</tspan></text><text x="1200.3333333333333" y="346" text-anchor="middle" style="width:133px;color:#666;cursor:default;font-size:11px;fill:#666;" opacity="1"><tspan x="1200.3333333333333">123dad</tspan></text><text x="1353.4444444444446" y="346" text-anchor="middle" style="width:133px;color:#666;cursor:default;font-size:11px;fill:#666;" opacity="1"><tspan x="1353.4444444444446">ddddddd</tspan></text></g><g class="highcharts-axis-labels highcharts-yaxis-labels" ><text x="44" y="198" text-anchor="end" style="width:455px;color:#666;cursor:default;font-size:11px;fill:#666;" opacity="1"><tspan x="44">0</tspan></text></g><g class="highcharts-tooltip"  style="cursor:default;padding:0;white-space:nowrap;" transform="translate(0,-9999)"><rect x="0.5" y="0.5" width="16" height="16" fill="none" fill-opacity="0.85" rx="3" ry="3"  stroke="black" stroke-opacity="0.049999999999999996" stroke-width="5" transform="translate(1, 1)"></rect><rect x="0.5" y="0.5" width="16" height="16" fill="none" fill-opacity="0.85" rx="3" ry="3"  stroke="black" stroke-opacity="0.09999999999999999" stroke-width="3" transform="translate(1, 1)"></rect><rect x="0.5" y="0.5" width="16" height="16" fill="none" fill-opacity="0.85" rx="3" ry="3"  stroke="black" stroke-opacity="0.15" stroke-width="1" transform="translate(1, 1)"></rect><rect x="0.5" y="0.5" width="16" height="16" fill="rgb(255,255,255)" fill-opacity="0.85" rx="3" ry="3"></rect><text x="8" y="21"  style="font-size:12px;color:#333333;fill:#333333;"></text></g><text x="1430" y="395" text-anchor="end"  style="cursor:pointer;color:#909090;font-size:9px;fill:#909090;"><tspan x="1430">清源水务</tspan></text></svg>