<svg xmlns:xlink="http://www.w3.org/1999/xlink" version="1.1" style="font-family:'lucida grande', 'lucida sans unicode', verdana, arial, helvetica, sans-serif;font-size:12px;" xmlns="http://www.w3.org/2000/svg" width="800" height="400"><desc>Created with Highcharts 3.0.10</desc><defs><clipPath id="highcharts-4"><rect x="0" y="0" width="730" height="260"></rect></clipPath></defs><rect x="0" y="0" width="800" height="400" fill="#FFFFFF" class=" highcharts-background"></rect><g class="highcharts-grid" ></g><g class="highcharts-grid" ><path fill="none" d="M 60 55.5 L 790 55.5" stroke="#C0C0C0" stroke-width="1"  opacity="1"></path><path fill="none" d="M 60 143.5 L 790 143.5" stroke="#C0C0C0" stroke-width="1"  opacity="1"></path><path fill="none" d="M 60 229.5 L 790 229.5" stroke="#C0C0C0" stroke-width="1"  opacity="1"></path><path fill="none" d="M 60 316.5 L 790 316.5" stroke="#C0C0C0" stroke-width="1"  opacity="1"></path></g><g class="highcharts-axis" ><path fill="none" d="M 221.5 316 L 221.5 321" stroke="#C0D0E0" stroke-width="1" opacity="1"></path><path fill="none" d="M 302.5 316 L 302.5 321" stroke="#C0D0E0" stroke-width="1" opacity="1"></path><path fill="none" d="M 383.5 316 L 383.5 321" stroke="#C0D0E0" stroke-width="1" opacity="1"></path><path fill="none" d="M 465.5 316 L 465.5 321" stroke="#C0D0E0" stroke-width="1" opacity="1"></path><path fill="none" d="M 546.5 316 L 546.5 321" stroke="#C0D0E0" stroke-width="1" opacity="1"></path><path fill="none" d="M 627.5 316 L 627.5 321" stroke="#C0D0E0" stroke-width="1" opacity="1"></path><path fill="none" d="M 708.5 316 L 708.5 321" stroke="#C0D0E0" stroke-width="1" opacity="1"></path><path fill="none" d="M 790.5 316 L 790.5 321" stroke="#C0D0E0" stroke-width="1" opacity="1"></path><path fill="none" d="M 140.5 316 L 140.5 321" stroke="#C0D0E0" stroke-width="1" opacity="1"></path><path fill="none" d="M 59.5 316 L 59.5 321" stroke="#C0D0E0" stroke-width="1"></path><path fill="none" d="M 60 316.5 L 790 316.5" stroke="#C0D0E0" stroke-width="1"  visibility="visible"></path></g><g class="highcharts-axis" ><text x="26" y="186"  text-anchor="middle" transform="translate(0,0) rotate(270 26 186)" class=" highcharts-yaxis-title" style="color:#4d759e;font-weight:bold;fill:#4d759e;" visibility="visible"><tspan x="26">通话次数</tspan></text></g><g class="highcharts-series-group" ><g class="highcharts-series highcharts-tracker" visibility="visible"  transform="translate(60,56) scale(1 1)" style="" clip-path="url(#highcharts-4)"><rect x="18.5" y="260.5" width="20" height="0" stroke="#FFFFFF" stroke-width="1" fill="#2f7ed8" rx="0" ry="0"></rect><rect x="99.5" y="121.5" width="20" height="139" stroke="#FFFFFF" stroke-width="1" fill="#2f7ed8" rx="0" ry="0"></rect><rect x="180.5" y="13.5" width="20" height="247" stroke="#FFFFFF" stroke-width="1" fill="#2f7ed8" rx="0" ry="0"></rect><rect x="261.5" y="22.5" width="20" height="238" stroke="#FFFFFF" stroke-width="1" fill="#2f7ed8" rx="0" ry="0"></rect><rect x="342.5" y="26.5" width="20" height="234" stroke="#FFFFFF" stroke-width="1" fill="#2f7ed8" rx="0" ry="0"></rect><rect x="423.5" y="39.5" width="20" height="221" stroke="#FFFFFF" stroke-width="1" fill="#2f7ed8" rx="0" ry="0"></rect><rect x="504.5" y="260.5" width="20" height="0" stroke="#FFFFFF" stroke-width="1" fill="#2f7ed8" rx="0" ry="0"></rect><rect x="585.5" y="260.5" width="20" height="0" stroke="#FFFFFF" stroke-width="1" fill="#2f7ed8" rx="0" ry="0"></rect><rect x="667.5" y="260.5" width="20" height="0" stroke="#FFFFFF" stroke-width="1" fill="#2f7ed8" rx="0" ry="0"></rect></g><g class="highcharts-markers" visibility="visible"  transform="translate(60,56) scale(1 1)" clip-path="none"></g><g class="highcharts-series highcharts-tracker" visibility="visible"  transform="translate(60,56) scale(1 1)" style="" clip-path="url(#highcharts-4)"><rect x="42.5" y="260.5" width="20" height="0" stroke="#FFFFFF" stroke-width="1" fill="#0d233a" rx="0" ry="0"></rect><rect x="123.5" y="260.5" width="20" height="0" stroke="#FFFFFF" stroke-width="1" fill="#0d233a" rx="0" ry="0"></rect><rect x="204.5" y="260.5" width="20" height="0" stroke="#FFFFFF" stroke-width="1" fill="#0d233a" rx="0" ry="0"></rect><rect x="285.5" y="260.5" width="20" height="0" stroke="#FFFFFF" stroke-width="1" fill="#0d233a" rx="0" ry="0"></rect><rect x="366.5" y="260.5" width="20" height="0" stroke="#FFFFFF" stroke-width="1" fill="#0d233a" rx="0" ry="0"></rect><rect x="448.5" y="260.5" width="20" height="0" stroke="#FFFFFF" stroke-width="1" fill="#0d233a" rx="0" ry="0"></rect><rect x="529.5" y="260.5" width="20" height="0" stroke="#FFFFFF" stroke-width="1" fill="#0d233a" rx="0" ry="0"></rect><rect x="610.5" y="260.5" width="20" height="0" stroke="#FFFFFF" stroke-width="1" fill="#0d233a" rx="0" ry="0"></rect><rect x="691.5" y="260.5" width="20" height="0" stroke="#FFFFFF" stroke-width="1" fill="#0d233a" rx="0" ry="0"></rect></g><g class="highcharts-markers" visibility="visible"  transform="translate(60,56) scale(1 1)" clip-path="none"></g></g><text x="400" y="25" text-anchor="middle" class="highcharts-title"  style="color:#274b6d;font-size:16px;fill:#274b6d;width:736px;"><tspan x="400">话务统计</tspan></text><text x="400" y="40" text-anchor="middle" class="highcharts-subtitle"  style="color:#4d759e;fill:#4d759e;width:736px;"><tspan x="400">2012-10-01 至 2014-12-31</tspan></text><g class="highcharts-legend"  transform="translate(343,358)"><rect x="0.5" y="0.5" width="113" height="26" rx="5" ry="5" stroke="#909090" stroke-width="1" fill="none" visibility="visible"></rect><g ><g><g class="highcharts-legend-item"  transform="translate(8,3)"><text x="21" y="15" style="color:#274b6d;font-size:12px;cursor:pointer;fill:#274b6d;" text-anchor="start" ><tspan x="21">呼入</tspan></text><rect x="0" y="4" width="16" height="12" rx="2" ry="2"  fill="#2f7ed8"></rect></g><g class="highcharts-legend-item"  transform="translate(61,3)"><text x="21" y="15" style="color:#274b6d;font-size:12px;cursor:pointer;fill:#274b6d;" text-anchor="start" ><tspan x="21">呼出</tspan></text><rect x="0" y="4" width="16" height="12" rx="2" ry="2"  fill="#0d233a"></rect></g></g></g></g><g class="highcharts-axis-labels highcharts-xaxis-labels" ><text x="100.55555555555556" y="330" text-anchor="middle" style="width:61px;color:#666;cursor:default;font-size:11px;fill:#666;" opacity="1"><tspan x="100.55555555555556">123123123</tspan></text><text x="181.66666666666669" y="346" text-anchor="middle" style="width:61px;color:#666;cursor:default;font-size:11px;fill:#666;" opacity="1"><tspan x="181.66666666666669">张三</tspan></text><text x="262.77777777777777" y="330" text-anchor="middle" style="width:61px;color:#666;cursor:default;font-size:11px;fill:#666;" opacity="1"><tspan x="262.77777777777777">系统管理员</tspan></text><text x="343.8888888888889" y="346" text-anchor="middle" style="width:61px;color:#666;cursor:default;font-size:11px;fill:#666;" opacity="1"><tspan x="343.8888888888889">测试管理员</tspan></text><text x="425" y="330" text-anchor="middle" style="width:61px;color:#666;cursor:default;font-size:11px;fill:#666;" opacity="1"><tspan x="425">我是测试管理员</tspan></text><text x="506.1111111111112" y="346" text-anchor="middle" style="width:61px;color:#666;cursor:default;font-size:11px;fill:#666;" opacity="1"><tspan x="506.1111111111112">李莫愁</tspan></text><text x="587.2222222222223" y="330" text-anchor="middle" style="width:61px;color:#666;cursor:default;font-size:11px;fill:#666;" opacity="1"><tspan x="587.2222222222223">李世民</tspan></text><text x="668.3333333333334" y="346" text-anchor="middle" style="width:61px;color:#666;cursor:default;font-size:11px;fill:#666;" opacity="1"><tspan x="668.3333333333334">123dad</tspan></text><text x="749.4444444444445" y="330" text-anchor="middle" style="width:61px;color:#666;cursor:default;font-size:11px;fill:#666;" opacity="1"><tspan x="749.4444444444445">ddddddd</tspan></text></g><g class="highcharts-axis-labels highcharts-yaxis-labels" ><text x="52" y="320" text-anchor="end" style="width:244px;color:#666;cursor:default;font-size:11px;fill:#666;" opacity="1"><tspan x="52">0</tspan></text><text x="52" y="233.33333333333337" text-anchor="end" style="width:244px;color:#666;cursor:default;font-size:11px;fill:#666;" opacity="1"><tspan x="52">20</tspan></text><text x="52" y="146.66666666666669" text-anchor="end" style="width:244px;color:#666;cursor:default;font-size:11px;fill:#666;" opacity="1"><tspan x="52">40</tspan></text><text x="52" y="60" text-anchor="end" style="width:244px;color:#666;cursor:default;font-size:11px;fill:#666;" opacity="1"><tspan x="52">60</tspan></text></g><g class="highcharts-tooltip"  style="cursor:default;padding:0;white-space:nowrap;" transform="translate(0,-9999)"><rect x="0.5" y="0.5" width="16" height="16" fill="none" fill-opacity="0.85" rx="3" ry="3"  stroke="black" stroke-opacity="0.049999999999999996" stroke-width="5" transform="translate(1, 1)"></rect><rect x="0.5" y="0.5" width="16" height="16" fill="none" fill-opacity="0.85" rx="3" ry="3"  stroke="black" stroke-opacity="0.09999999999999999" stroke-width="3" transform="translate(1, 1)"></rect><rect x="0.5" y="0.5" width="16" height="16" fill="none" fill-opacity="0.85" rx="3" ry="3"  stroke="black" stroke-opacity="0.15" stroke-width="1" transform="translate(1, 1)"></rect><rect x="0.5" y="0.5" width="16" height="16" fill="rgb(255,255,255)" fill-opacity="0.85" rx="3" ry="3"></rect><text x="8" y="21"  style="font-size:12px;color:#333333;fill:#333333;"></text></g><text x="790" y="395" text-anchor="end"  style="cursor:pointer;color:#909090;font-size:9px;fill:#909090;"><tspan x="790">清源水务</tspan></text></svg>