<svg xmlns:xlink="http://www.w3.org/1999/xlink" version="1.1" style="font-family:'lucida grande', 'lucida sans unicode', verdana, arial, helvetica, sans-serif;font-size:12px;" xmlns="http://www.w3.org/2000/svg" width="1024" height="400"><desc>Created with Highcharts 3.0.10</desc><defs><clipPath id="highcharts-4"><rect x="0" y="0" width="954" height="276"></rect></clipPath></defs><rect x="0" y="0" width="1024" height="400" fill="#FFFFFF" class=" highcharts-background"></rect><g class="highcharts-grid" ></g><g class="highcharts-grid" ><path fill="none" d="M 60 55.5 L 1014 55.5" stroke="#C0C0C0" stroke-width="1"  opacity="1"></path><path fill="none" d="M 60 148.5 L 1014 148.5" stroke="#C0C0C0" stroke-width="1"  opacity="1"></path><path fill="none" d="M 60 240.5 L 1014 240.5" stroke="#C0C0C0" stroke-width="1"  opacity="1"></path><path fill="none" d="M 60 332.5 L 1014 332.5" stroke="#C0C0C0" stroke-width="1"  opacity="1"></path></g><g class="highcharts-axis" ><path fill="none" d="M 271.5 332 L 271.5 337" stroke="#C0D0E0" stroke-width="1" opacity="1"></path><path fill="none" d="M 377.5 332 L 377.5 337" stroke="#C0D0E0" stroke-width="1" opacity="1"></path><path fill="none" d="M 483.5 332 L 483.5 337" stroke="#C0D0E0" stroke-width="1" opacity="1"></path><path fill="none" d="M 589.5 332 L 589.5 337" stroke="#C0D0E0" stroke-width="1" opacity="1"></path><path fill="none" d="M 695.5 332 L 695.5 337" stroke="#C0D0E0" stroke-width="1" opacity="1"></path><path fill="none" d="M 801.5 332 L 801.5 337" stroke="#C0D0E0" stroke-width="1" opacity="1"></path><path fill="none" d="M 907.5 332 L 907.5 337" stroke="#C0D0E0" stroke-width="1" opacity="1"></path><path fill="none" d="M 1014.5 332 L 1014.5 337" stroke="#C0D0E0" stroke-width="1" opacity="1"></path><path fill="none" d="M 165.5 332 L 165.5 337" stroke="#C0D0E0" stroke-width="1" opacity="1"></path><path fill="none" d="M 59.5 332 L 59.5 337" stroke="#C0D0E0" stroke-width="1"></path><path fill="none" d="M 60 332.5 L 1014 332.5" stroke="#C0D0E0" stroke-width="1"  visibility="visible"></path></g><g class="highcharts-axis" ><text x="26" y="194"  text-anchor="middle" transform="translate(0,0) rotate(270 26 194)" class=" highcharts-yaxis-title" style="color:#4d759e;font-weight:bold;fill:#4d759e;" visibility="visible"><tspan x="26">通话次数</tspan></text></g><g class="highcharts-series-group" ><g class="highcharts-series highcharts-tracker" visibility="visible"  transform="translate(60,56) scale(1 1)" style="" clip-path="url(#highcharts-4)"><rect x="23.5" y="276.5" width="26" height="0" stroke="#FFFFFF" stroke-width="1" fill="#2f7ed8" rx="0" ry="0"></rect><rect x="129.5" y="129.5" width="26" height="147" stroke="#FFFFFF" stroke-width="1" fill="#2f7ed8" rx="0" ry="0"></rect><rect x="235.5" y="14.5" width="26" height="262" stroke="#FFFFFF" stroke-width="1" fill="#2f7ed8" rx="0" ry="0"></rect><rect x="341.5" y="23.5" width="26" height="253" stroke="#FFFFFF" stroke-width="1" fill="#2f7ed8" rx="0" ry="0"></rect><rect x="447.5" y="28.5" width="26" height="248" stroke="#FFFFFF" stroke-width="1" fill="#2f7ed8" rx="0" ry="0"></rect><rect x="553.5" y="41.5" width="26" height="235" stroke="#FFFFFF" stroke-width="1" fill="#2f7ed8" rx="0" ry="0"></rect><rect x="659.5" y="276.5" width="26" height="0" stroke="#FFFFFF" stroke-width="1" fill="#2f7ed8" rx="0" ry="0"></rect><rect x="765.5" y="276.5" width="26" height="0" stroke="#FFFFFF" stroke-width="1" fill="#2f7ed8" rx="0" ry="0"></rect><rect x="871.5" y="276.5" width="26" height="0" stroke="#FFFFFF" stroke-width="1" fill="#2f7ed8" rx="0" ry="0"></rect></g><g class="highcharts-markers" visibility="visible"  transform="translate(60,56) scale(1 1)" clip-path="none"></g><g class="highcharts-series highcharts-tracker" visibility="visible"  transform="translate(60,56) scale(1 1)" style="" clip-path="url(#highcharts-4)"><rect x="55.5" y="276.5" width="26" height="0" stroke="#FFFFFF" stroke-width="1" fill="#0d233a" rx="0" ry="0"></rect><rect x="161.5" y="276.5" width="26" height="0" stroke="#FFFFFF" stroke-width="1" fill="#0d233a" rx="0" ry="0"></rect><rect x="267.5" y="276.5" width="26" height="0" stroke="#FFFFFF" stroke-width="1" fill="#0d233a" rx="0" ry="0"></rect><rect x="373.5" y="276.5" width="26" height="0" stroke="#FFFFFF" stroke-width="1" fill="#0d233a" rx="0" ry="0"></rect><rect x="479.5" y="276.5" width="26" height="0" stroke="#FFFFFF" stroke-width="1" fill="#0d233a" rx="0" ry="0"></rect><rect x="585.5" y="276.5" width="26" height="0" stroke="#FFFFFF" stroke-width="1" fill="#0d233a" rx="0" ry="0"></rect><rect x="691.5" y="276.5" width="26" height="0" stroke="#FFFFFF" stroke-width="1" fill="#0d233a" rx="0" ry="0"></rect><rect x="797.5" y="276.5" width="26" height="0" stroke="#FFFFFF" stroke-width="1" fill="#0d233a" rx="0" ry="0"></rect><rect x="903.5" y="276.5" width="26" height="0" stroke="#FFFFFF" stroke-width="1" fill="#0d233a" rx="0" ry="0"></rect></g><g class="highcharts-markers" visibility="visible"  transform="translate(60,56) scale(1 1)" clip-path="none"></g></g><text x="512" y="25" text-anchor="middle" class="highcharts-title"  style="color:#274b6d;font-size:16px;fill:#274b6d;width:960px;"><tspan x="512">话务统计</tspan></text><text x="512" y="40" text-anchor="middle" class="highcharts-subtitle"  style="color:#4d759e;fill:#4d759e;width:960px;"><tspan x="512">2012-10-01 至 2014-12-31</tspan></text><g class="highcharts-legend"  transform="translate(455,358)"><rect x="0.5" y="0.5" width="113" height="26" rx="5" ry="5" stroke="#909090" stroke-width="1" fill="none" visibility="visible"></rect><g ><g><g class="highcharts-legend-item"  transform="translate(8,3)"><text x="21" y="15" style="color:#274b6d;font-size:12px;cursor:pointer;fill:#274b6d;" text-anchor="start" ><tspan x="21">呼入</tspan></text><rect x="0" y="4" width="16" height="12" rx="2" ry="2"  fill="#2f7ed8"></rect></g><g class="highcharts-legend-item"  transform="translate(61,3)"><text x="21" y="15" style="color:#274b6d;font-size:12px;cursor:pointer;fill:#274b6d;" text-anchor="start" ><tspan x="21">呼出</tspan></text><rect x="0" y="4" width="16" height="12" rx="2" ry="2"  fill="#0d233a"></rect></g></g></g></g><g class="highcharts-axis-labels highcharts-xaxis-labels" ><text x="113" y="346" text-anchor="middle" style="width:86px;color:#666;cursor:default;font-size:11px;fill:#666;" opacity="1"><tspan x="113">123123123</tspan></text><text x="219" y="346" text-anchor="middle" style="width:86px;color:#666;cursor:default;font-size:11px;fill:#666;" opacity="1"><tspan x="219">张三</tspan></text><text x="325" y="346" text-anchor="middle" style="width:86px;color:#666;cursor:default;font-size:11px;fill:#666;" opacity="1"><tspan x="325">系统管理员</tspan></text><text x="431" y="346" text-anchor="middle" style="width:86px;color:#666;cursor:default;font-size:11px;fill:#666;" opacity="1"><tspan x="431">测试管理员</tspan></text><text x="537" y="346" text-anchor="middle" style="width:86px;color:#666;cursor:default;font-size:11px;fill:#666;" opacity="1"><tspan x="537">我是测试管理员</tspan></text><text x="643" y="346" text-anchor="middle" style="width:86px;color:#666;cursor:default;font-size:11px;fill:#666;" opacity="1"><tspan x="643">李莫愁</tspan></text><text x="749" y="346" text-anchor="middle" style="width:86px;color:#666;cursor:default;font-size:11px;fill:#666;" opacity="1"><tspan x="749">李世民</tspan></text><text x="855" y="346" text-anchor="middle" style="width:86px;color:#666;cursor:default;font-size:11px;fill:#666;" opacity="1"><tspan x="855">123dad</tspan></text><text x="961" y="346" text-anchor="middle" style="width:86px;color:#666;cursor:default;font-size:11px;fill:#666;" opacity="1"><tspan x="961">ddddddd</tspan></text></g><g class="highcharts-axis-labels highcharts-yaxis-labels" ><text x="52" y="336" text-anchor="end" style="width:318px;color:#666;cursor:default;font-size:11px;fill:#666;" opacity="1"><tspan x="52">0</tspan></text><text x="52" y="244" text-anchor="end" style="width:318px;color:#666;cursor:default;font-size:11px;fill:#666;" opacity="1"><tspan x="52">20</tspan></text><text x="52" y="152" text-anchor="end" style="width:318px;color:#666;cursor:default;font-size:11px;fill:#666;" opacity="1"><tspan x="52">40</tspan></text><text x="52" y="60" text-anchor="end" style="width:318px;color:#666;cursor:default;font-size:11px;fill:#666;" opacity="1"><tspan x="52">60</tspan></text></g><g class="highcharts-tooltip"  style="cursor:default;padding:0;white-space:nowrap;" transform="translate(0,-9999)"><rect x="0.5" y="0.5" width="16" height="16" fill="none" fill-opacity="0.85" rx="3" ry="3"  stroke="black" stroke-opacity="0.049999999999999996" stroke-width="5" transform="translate(1, 1)"></rect><rect x="0.5" y="0.5" width="16" height="16" fill="none" fill-opacity="0.85" rx="3" ry="3"  stroke="black" stroke-opacity="0.09999999999999999" stroke-width="3" transform="translate(1, 1)"></rect><rect x="0.5" y="0.5" width="16" height="16" fill="none" fill-opacity="0.85" rx="3" ry="3"  stroke="black" stroke-opacity="0.15" stroke-width="1" transform="translate(1, 1)"></rect><rect x="0.5" y="0.5" width="16" height="16" fill="rgb(255,255,255)" fill-opacity="0.85" rx="3" ry="3"></rect><text x="8" y="21"  style="font-size:12px;color:#333333;fill:#333333;"></text></g><text x="1014" y="395" text-anchor="end"  style="cursor:pointer;color:#909090;font-size:9px;fill:#909090;"><tspan x="1014">清源水务</tspan></text></svg>